<svg width="559" height="546" fill="none" xmlns="http://www.w3.org/2000/svg"><mask id="a" fill="#fff"><path fill-rule="evenodd" clip-rule="evenodd" d="M0 0v421.482C168.265 499.346 447.672 607.866 503.5 500c41.185-79.574 36.66-147.089 31.437-225.014C529.895 199.763 524.203 114.838 558.351 0H0z"/></mask><path fill-rule="evenodd" clip-rule="evenodd" d="M0 0v421.482C168.265 499.346 447.672 607.866 503.5 500c41.185-79.574 36.66-147.089 31.437-225.014C529.895 199.763 524.203 114.838 558.351 0H0z" fill="#A6BA95"/><path d="M0 0v-1h-1v1h1zm0 421.482h-1v.639l.58.268.42-.907zM503.5 500l-.888-.46.888.46zm31.437-225.014-.997.067.997-.067zM558.351 0l.959.285.382-1.285h-1.341v1zM-1 0v421.482h2V0h-2zm.58 422.389c84.148 38.94 196.139 85.57 294.101 108.973 48.974 11.7 94.52 17.615 131.359 13.82 36.842-3.796 65.172-17.332 79.348-44.722l-1.776-.92c-13.738 26.543-41.27 39.891-77.777 43.653-36.509 3.761-81.799-2.096-130.689-13.776C196.382 506.061 84.537 459.499.42 420.574l-.84 1.815zm504.808 78.071c41.327-79.848 36.77-147.622 31.547-225.541l-1.995.134c5.223 77.931 9.716 145.186-31.328 224.487l1.776.92zm31.547-225.541c-5.04-75.202-10.719-159.976 23.375-274.634l-1.917-.57c-34.202 115.019-28.497 200.094-23.453 275.338l1.995-.134zM558.351-1H0v2h558.351v-2z" fill="#A6BA95" mask="url(#a)"/></svg>