<svg width="358" height="585" fill="none" xmlns="http://www.w3.org/2000/svg"><mask id="a" fill="#fff"><path fill-rule="evenodd" clip-rule="evenodd" d="M358 .333C223.766 63.243-121.079 240.059 44.92 325.5 179.828 394.938 295.275 512.701 358 584.506V.333z"/></mask><path fill-rule="evenodd" clip-rule="evenodd" d="M358 .333C223.766 63.243-121.079 240.059 44.92 325.5 179.828 394.938 295.275 512.701 358 584.506V.333z" fill="#FCC87D"/><path d="m44.92 325.5-.457.889.457-.889zM358 .333h1V-1.24l-1.424.668.424.905zm0 584.173-.753.658 1.753 2.007v-2.665h-1zM45.378 324.611c-20.638-10.623-33.199-22.596-39.266-35.46-6.055-12.837-5.714-26.711-.244-41.306 10.974-29.285 42.5-61.216 83.611-92.583C171.628 92.585 291.311 32.692 358.424 1.238l-.848-1.81c-67.121 31.456-186.977 91.425-269.31 154.244-41.13 31.381-73.08 63.607-84.27 93.471-5.614 14.979-6.028 29.429.307 42.861 6.323 13.405 19.298 25.647 40.16 36.385l.915-1.778zm313.375 259.237c-62.75-71.833-178.296-189.711-313.375-259.237l-.915 1.778c134.737 69.35 250.083 186.998 312.784 258.775l1.506-1.316zm.247.658V.333h-2v584.173h2z" fill="#FCC87D" mask="url(#a)"/></svg>